<svg width="150" height="140" viewBox="0 0 150 140" fill="none" xmlns="http://www.w3.org/2000/svg">
<path d="M38.3788 1.91403C31.2509 1.91357 24.2825 3.88593 18.3563 7.58146C12.4295 11.2775 7.80989 16.5301 5.08126 22.677C2.35376 28.823 1.63938 35.5861 3.03001 42.1113C4.42063 48.636 7.85276 54.6296 12.8928 59.3336C17.9328 64.0376 24.3546 67.2409 31.3453 68.5389C38.3365 69.8368 45.5828 69.17 52.1678 66.6244C58.7533 64.0782 64.3811 59.7666 68.3415 54.2344C72.301 48.7027 74.4143 42.199 74.4138 35.5467C74.403 26.6299 70.6028 18.0805 63.8474 11.7759C57.092 5.47119 47.9324 1.92394 38.3786 1.91391L38.3788 1.91403ZM37.2469 64.7845C37.1234 64.7804 37.0003 64.7722 36.8773 64.7668C36.6249 64.7558 36.3724 64.7444 36.1205 64.728C35.974 64.718 35.8275 64.7043 35.681 64.6929C35.454 64.6747 35.2269 64.6569 35.0008 64.6346C34.8446 64.6191 34.6893 64.6 34.5321 64.5822C34.3167 64.5576 34.1009 64.533 33.8876 64.5038C33.7274 64.4824 33.5687 64.4582 33.409 64.4345C33.1991 64.4035 32.9896 64.3721 32.7811 64.3365C32.62 64.3092 32.4589 64.28 32.2992 64.2509C32.0941 64.213 31.889 64.1748 31.6839 64.1328C31.5228 64.1 31.3617 64.0654 31.202 64.0308C30.9994 63.9865 30.7972 63.941 30.5951 63.894C30.4354 63.8562 30.2762 63.817 30.1175 63.7765C29.9164 63.7254 29.7162 63.6721 29.5165 63.6174C29.3592 63.5741 29.202 63.5304 29.0458 63.4852C28.8456 63.4269 28.6468 63.3663 28.4476 63.3043C28.2938 63.256 28.1395 63.2082 27.9867 63.158C27.7865 63.0924 27.5873 63.0236 27.3885 62.9539C27.2391 62.9014 27.0897 62.8504 26.9413 62.7962C26.7386 62.7219 26.5379 62.644 26.3373 62.566C26.1947 62.5113 26.0511 62.4567 25.9095 62.3992C25.7015 62.3149 25.4955 62.2261 25.2894 62.1376C25.1571 62.0807 25.0257 62.026 24.8929 61.9677C24.6678 61.8674 24.4452 61.7617 24.2225 61.6564C24.1126 61.604 24.0018 61.5548 23.8924 61.5014C23.5814 61.3501 23.2728 61.1934 22.9667 61.0311C22.9471 61.0211 22.9276 61.0115 22.9081 61.0015C22.5931 60.8343 22.2816 60.6606 21.972 60.482V54.4135C21.972 48.9428 25.0995 43.8879 30.1752 41.1531C35.2513 38.4174 41.5058 38.4174 46.5814 41.1531C51.6575 43.8884 54.7845 48.9433 54.7845 54.4135V60.4811C54.475 60.6588 54.1634 60.8324 53.8485 61.0006C53.829 61.0111 53.8094 61.0202 53.7899 61.0302C53.4837 61.192 53.1751 61.3488 52.8641 61.5005C52.7552 61.5552 52.6439 61.6031 52.534 61.6555C52.3114 61.7607 52.0882 61.8665 51.8636 61.9667C51.7323 62.0251 51.6 62.0797 51.4676 62.1367C51.2611 62.2251 51.055 62.3144 50.8465 62.3988C50.7049 62.4562 50.5619 62.5099 50.4193 62.5655C50.2181 62.6439 50.0174 62.7219 49.8148 62.7957C49.6664 62.8504 49.5169 62.9014 49.3675 62.9534C49.1688 63.0227 48.9696 63.0919 48.7689 63.1575C48.6156 63.2077 48.4618 63.2555 48.308 63.3034C48.1092 63.3654 47.91 63.426 47.7098 63.4843C47.5536 63.5299 47.3963 63.5736 47.2391 63.6165C47.0394 63.6712 46.8387 63.724 46.638 63.7755C46.4793 63.8156 46.3202 63.8548 46.1605 63.8931C45.9588 63.9414 45.7567 63.987 45.5536 64.0298C45.3934 64.0649 45.2328 64.0991 45.0716 64.1319C44.8665 64.1734 44.6615 64.2121 44.4564 64.2499C44.2957 64.2791 44.1356 64.3087 43.9744 64.3356C43.7655 64.3707 43.556 64.4022 43.3465 64.4336C43.1873 64.4573 43.0282 64.4819 42.8685 64.5029C42.6536 64.532 42.4383 64.5576 42.224 64.5813C42.0682 64.599 41.9129 64.6182 41.7567 64.6337C41.5306 64.6564 41.3036 64.6742 41.0765 64.692C40.93 64.7038 40.7835 64.7175 40.6371 64.7271C40.3856 64.7439 40.1327 64.7544 39.8802 64.7658C39.7567 64.7713 39.6341 64.7795 39.5106 64.7836C39.1346 64.7977 38.7572 64.8041 38.3788 64.8041C38.0003 64.8041 37.6234 64.7977 37.2469 64.7845ZM59.4719 57.1889V54.4136C59.4719 49.1923 57.2498 44.1847 53.2937 40.4929C49.3377 36.8006 43.9724 34.7265 38.3787 34.7265C32.7849 34.7265 27.4192 36.8005 23.4637 40.4929C19.5077 44.1852 17.2854 49.1927 17.2854 54.4136V57.1889C12.6057 53.2159 9.32355 48.0142 7.86992 42.2673C6.4168 36.521 6.86016 30.4979 9.14242 24.9913C11.4247 19.4843 15.4383 14.7506 20.6565 11.4124C25.8748 8.07426 32.053 6.28774 38.379 6.28774C44.705 6.28774 50.884 8.07414 56.1015 11.4124C61.319 14.7507 65.3334 19.4844 67.6157 24.9913C69.8979 30.4978 70.3413 36.5207 68.8882 42.2673C67.4345 48.014 64.1523 53.2157 59.4727 57.1889H59.4719ZM38.3782 9.29611C35.115 9.29611 31.985 10.5061 29.6775 12.6598C27.3699 14.8136 26.0735 17.7348 26.0735 20.7804C26.0735 23.826 27.3699 26.7473 29.6775 28.901C31.9852 31.0548 35.115 32.2647 38.3782 32.2647C41.6413 32.2647 44.7713 31.0548 47.0788 28.901C49.3864 26.7472 50.6828 23.826 50.6828 20.7804C50.6794 17.7357 49.3815 14.8163 47.0749 12.6635C44.7683 10.5106 41.6403 9.29926 38.3782 9.29611ZM38.3782 27.8904C36.3582 27.8904 34.4207 27.1412 32.9919 25.8082C31.5637 24.4747 30.7609 22.6663 30.7609 20.781C30.7609 18.8957 31.5637 17.0873 32.9919 15.7538C34.4207 14.4208 36.3582 13.6716 38.3782 13.6716C40.3982 13.6716 42.3357 14.4208 43.7644 15.7538C45.1927 17.0873 45.9954 18.8957 45.9954 20.781C45.993 22.6659 45.1898 24.4729 43.7621 25.8058C42.3338 27.1384 40.3978 27.8881 38.3783 27.8903L38.3782 27.8904ZM117.187 36.0626V22.4418L145.942 14.9582V14.9586C146.6 14.7873 147.145 14.3575 147.434 13.781C147.724 13.204 147.731 12.5383 147.452 11.9571C147.172 11.3756 146.636 10.9368 145.982 10.7549L115.513 2.27837C114.804 2.08104 114.037 2.20818 113.443 2.62062C112.85 3.03351 112.5 3.68384 112.5 4.3747V20.7314V20.8294V35.9984L90.0401 96.329L67.4901 68.6743C67.1503 68.2578 66.662 67.9689 66.1136 67.8595C65.5653 67.7506 64.993 67.8285 64.5009 68.0796C64.0087 68.3303 63.6293 68.7377 63.4315 69.2276L43.3978 118.83L27.7028 108.671C27.216 108.356 26.6188 108.224 26.0319 108.303C25.4455 108.382 24.9128 108.666 24.5412 109.098L2.86116 134.253C2.48957 134.684 2.30696 135.23 2.34944 135.781C2.39241 136.333 2.65705 136.849 3.09065 137.226C3.52425 137.602 4.09505 137.812 4.68727 137.812H145.025C145.76 137.812 146.452 137.49 146.895 136.943C147.339 136.396 147.481 135.687 147.281 135.027L117.187 36.0626ZM117.187 7.30893L136.856 12.7808L117.187 17.8996V7.30893ZM9.57942 133.437L26.8244 113.427L43.1944 124.023H43.1939C43.7877 124.407 44.5372 124.515 45.2267 124.314C45.9161 124.114 46.4684 123.628 46.7228 122.997L66.3228 74.4687L88.9541 102.223H88.9545C89.2983 102.644 89.7944 102.935 90.3505 103.041C90.9072 103.147 91.4858 103.061 91.9789 102.799C92.4726 102.537 92.8471 102.116 93.0331 101.615L114.617 43.638L141.918 133.436L9.57942 133.437Z" fill="#9CFF1E"/>
</svg>
