<svg width="150" height="140" viewBox="0 0 150 140" fill="none" xmlns="http://www.w3.org/2000/svg">
<path d="M74.7012 25.676C76.8164 25.676 78.8848 25.7854 80.9414 25.9986V18.0034H68.4609V25.9986C70.5176 25.7908 72.6036 25.676 74.7012 25.676Z" fill="#9CFF1E"/>
<path d="M113.789 39.8837L118.922 33.6931C119.718 32.7415 119.519 31.3689 118.5 30.6251L114.088 27.4478C113.666 27.1416 113.156 26.9884 112.664 26.9884C111.961 26.9884 111.269 27.2837 110.806 27.8416L105.644 34.0705C108.539 35.7932 111.269 37.7236 113.789 39.8783L113.789 39.8837Z" fill="#9CFF1E"/>
<path d="M43.5587 34.202L38.2911 27.8473C37.8282 27.2895 37.1368 27.0051 36.4337 27.0051C35.9416 27.0051 35.4259 27.1582 35.0099 27.4645L30.5977 30.6418C29.5782 31.3855 29.3849 32.7582 30.1759 33.7098L35.4435 40.0645C37.9512 37.8934 40.6759 35.9465 43.5587 34.2129V34.202Z" fill="#9CFF1E"/>
<path d="M74.7012 27.076C43.5937 27.076 18.2875 50.6952 18.2875 79.7288C18.2875 108.762 43.5937 132.382 74.7012 132.382C105.809 132.382 131.115 108.762 131.115 79.7288C131.115 50.6952 105.809 27.076 74.7012 27.076ZM100.354 116.369C100.354 116.369 100.295 116.424 100.266 116.451C100.237 116.468 100.207 116.451 100.178 116.479C92.8419 120.919 84.0992 123.522 74.7242 123.522C57.2342 123.522 41.9642 114.532 33.8954 101.265C33.8779 101.248 33.8486 101.237 33.8369 101.21C33.8193 101.183 33.8193 101.155 33.8076 101.128C29.9989 94.8006 27.8076 87.5047 27.8076 79.7347C27.8076 71.9641 29.9989 64.6684 33.8076 58.3416C33.8076 58.3142 33.8076 58.2869 33.8369 58.2595C33.8544 58.2322 33.8837 58.2158 33.913 58.1884C37.6161 52.0962 42.8369 46.9174 49.0943 43.0953L49.1822 43.0132C49.229 42.9859 49.2583 42.9859 49.2993 42.9695C56.6353 38.5289 65.3656 35.953 74.7231 35.953C84.0805 35.953 92.8119 38.5453 100.147 42.9695C100.194 42.9859 100.235 42.9968 100.264 43.0132C100.293 43.0406 100.323 43.0679 100.352 43.0953C106.61 46.918 111.825 52.0968 115.533 58.1884C115.562 58.2158 115.592 58.2322 115.609 58.2705C115.627 58.2978 115.627 58.3252 115.639 58.3525C119.447 64.6798 121.639 71.9757 121.639 79.7457C121.639 87.5167 119.447 94.7957 115.639 101.139C115.639 101.166 115.639 101.194 115.609 101.237C115.609 101.265 115.562 101.265 115.551 101.292C111.848 107.384 106.627 112.574 100.357 116.413L100.354 116.369Z" fill="#9CFF1E"/>
<path d="M107.983 98.0164C107.625 97.8195 107.49 97.3984 107.695 97.0648C107.906 96.7312 108.358 96.6054 108.715 96.7968L114.639 99.9031C118.014 94.0953 119.977 87.4722 120.1 80.4291H113.303C112.881 80.4291 112.553 80.1228 112.553 79.7291C112.553 79.3353 112.881 79.0291 113.303 79.0291H120.1C119.983 71.9853 118.014 65.3627 114.639 59.5551L108.715 62.6613C108.598 62.716 108.475 62.7434 108.34 62.7434C108.082 62.7434 107.83 62.6176 107.678 62.3934C107.467 62.0598 107.602 61.6223 107.965 61.4418L113.877 58.3355C110.426 52.834 105.686 48.1145 100.031 44.5595L96.3394 49.8806C96.1871 50.0884 95.9468 50.2032 95.7066 50.2032C95.5718 50.2032 95.4195 50.1595 95.3023 50.0939C94.9566 49.8861 94.8511 49.4486 95.0797 49.1259L98.771 43.8212C91.7808 39.7196 83.531 37.3407 74.6823 37.3407C65.8347 37.3407 57.5848 39.7196 50.5935 43.8212L54.2849 49.1259C54.5076 49.4486 54.4021 49.8806 54.0623 50.0939C53.9451 50.165 53.7927 50.2032 53.658 50.2032C53.4177 50.2032 53.1775 50.0939 53.0251 49.8806L49.3338 44.5595C43.6911 48.1143 38.951 52.8338 35.4875 58.3355L41.3996 61.4418C41.7571 61.6387 41.8918 62.0598 41.6868 62.3934C41.552 62.6176 41.2942 62.7434 41.0246 62.7434C40.9075 62.7434 40.7668 62.716 40.6496 62.6613L34.7258 59.5551C31.3508 65.3629 29.3879 71.9859 29.2648 79.0291H36.0616C36.4835 79.0291 36.8116 79.3353 36.8116 79.7291C36.8116 80.1228 36.4835 80.4291 36.0616 80.4291H29.2648C29.382 87.4728 31.3508 94.0954 34.7258 99.9031L40.6496 96.7968C41.0071 96.5999 41.4582 96.7257 41.6692 97.0648C41.8801 97.3984 41.7453 97.8359 41.3821 98.0164L35.4699 101.123C43.2394 113.482 57.5362 121.855 73.9137 122.106V115.763C73.9137 115.369 74.2418 115.063 74.6637 115.063C75.0856 115.063 75.4137 115.369 75.4137 115.763V122.106C83.9801 121.98 91.9599 119.629 98.7524 115.653L95.0611 110.348C94.8384 110.026 94.9439 109.594 95.2837 109.381C95.6294 109.173 96.0923 109.255 96.3208 109.588L100.012 114.909C105.655 111.355 110.395 106.635 113.858 101.133L107.946 98.0271L107.983 98.0164ZM75.9325 42.9952C80.6551 42.9952 84.5106 46.5772 84.5106 51.0014C84.5106 55.4257 80.6551 59.0077 75.9325 59.0077C71.2099 59.0077 67.3544 55.4257 67.3544 51.0014C67.3544 46.5772 71.2099 42.9952 75.9325 42.9952ZM96.6925 90.5952L84.6749 111.343C84.5401 111.567 84.2823 111.71 84.0128 111.71H54.8803C54.4584 111.71 54.1303 111.403 54.1303 111.01V106.503C54.1303 106.153 54.3998 105.858 54.7631 105.82L70.0331 103.649L65.9667 92.394C65.9198 92.2518 65.9198 92.1151 65.9667 91.9729C65.3339 90.5564 65.0351 88.8064 65.1112 86.7776L65.1581 86.0338L56.7909 77.3386C56.5506 77.0979 56.533 76.737 56.7323 76.469L66.6463 63.4747L66.6931 63.4309C66.7224 63.4036 66.74 63.3763 66.7693 63.3489C66.8162 63.3216 66.8572 63.3052 66.9041 63.2778C66.9334 63.2778 66.9509 63.2505 66.9802 63.2341C67.0857 63.1903 67.2029 63.163 67.3259 63.1794L81.3822 64.3989C81.7396 64.4262 82.0267 64.6942 82.056 65.0278C82.4896 69.4356 82.1439 80.849 82.0736 83.3106L96.3411 89.6271C96.5227 89.7091 96.6692 89.8677 96.7337 90.0482C96.7923 90.2287 96.7805 90.4255 96.6751 90.5951L96.6925 90.5952Z" fill="#9CFF1E"/>
<path d="M79.3187 95.9432L80.5199 102.495L83.6723 95.872L79.3187 95.9432Z" fill="#9CFF1E"/>
<path d="M79.4113 104.803L77.794 95.9544L72.9483 96.0364C71.1612 96.0364 69.6788 95.659 68.4659 94.8879L71.753 103.961C71.8292 104.158 71.7999 104.365 71.6769 104.551C71.5597 104.732 71.3605 104.847 71.1495 104.874L55.6395 107.083V110.288H76.8033L79.4106 104.798L79.4113 104.803Z" fill="#9CFF1E"/>
<path d="M83.01 50.9903C83.01 59.8005 68.8475 59.8005 68.8475 50.9903C68.8475 42.1748 83.01 42.1748 83.01 50.9903Z" fill="#9CFF1E"/>
<path d="M80.9825 84.3664C80.713 84.2406 80.5489 83.989 80.5489 83.7101C80.5489 83.5843 80.9825 70.9129 80.6075 65.7073L74.4728 65.1768L67.6173 64.5862L58.3009 76.7918L69.6095 88.5495L72.129 87.1768L66.3868 77.8963C66.2227 77.6448 66.252 77.3221 66.4629 77.0979L72.5802 70.3057C72.8497 70.0104 73.3126 69.9721 73.629 70.2236C73.9454 70.4752 73.9865 70.9072 73.7169 71.2025L67.9395 77.612L73.7872 87.0784C73.9981 87.412 73.8751 87.8331 73.5176 88.03L69.8263 90.048C69.7091 90.1191 69.5685 90.1464 69.4513 90.1464C69.2403 90.1464 69.047 90.0644 68.8946 89.9058L66.5978 87.5105C66.6271 90.0152 67.3009 91.9785 68.5606 93.1816C69.6095 94.1769 71.0801 94.6526 72.8966 94.6363L84.7911 94.4394C85.0607 94.412 85.2833 94.5488 85.4357 94.7456C85.5704 94.9425 85.5997 95.1941 85.4942 95.4183L78.4161 110.287H83.5314L94.9454 90.5615L80.9529 84.3599L80.9825 84.3664Z" fill="#9CFF1E"/>
<path d="M63.72 16.6028H86.2788C87.9135 16.6028 89.2495 15.3559 89.2495 13.8301V10.4832C89.2495 8.95744 87.9135 7.71051 86.2788 7.71051H63.72C62.0853 7.71051 60.7493 8.95744 60.7493 10.4832V13.8301C60.7493 15.3559 62.0853 16.6028 63.72 16.6028Z" fill="#9CFF1E"/>
</svg>
