<svg width="150" height="140" viewBox="0 0 150 140" fill="none" xmlns="http://www.w3.org/2000/svg">
<path d="M52.65 83.44C50.4 80.5001 47.2501 78.4001 43.7999 77.0001C40.0499 79.8001 35.0996 81.4799 29.8499 81.4799C24.6001 81.4799 19.8001 79.8001 15.8999 76.8596C9.14987 79.6596 3.75 84.6995 3.75 93.5196L3.75049 105C3.75049 106.68 5.25049 108.08 7.05024 108.08H42.6002V102.34C42.6007 94.36 46.0505 87.9197 52.6505 83.4397L52.65 83.44Z" fill="#9CFF1E"/>
<path d="M29.85 75.46C38.5502 75.46 45.6 68.8802 45.6 60.76C45.6 52.6398 38.5502 46.06 29.85 46.06C21.1497 46.06 14.1 52.6398 14.1 60.76C14.1 68.8798 21.1497 75.46 29.85 75.46Z" fill="#9CFF1E"/>
<path d="M135.6 77.7C133.8 79.1 131.25 79.9399 128.7 79.9399H111.9C109.2 79.9399 106.8 79.1 105 77.5601C102.15 78.9601 99.4505 80.7803 97.5002 83.3C104.1 87.7798 107.55 94.3601 107.55 102.2V107.94H143.1C144.9 107.94 146.4 106.54 146.4 104.86V93.5202C146.25 85.54 141.6 80.3602 135.6 77.7002L135.6 77.7Z" fill="#9CFF1E"/>
<path d="M92.55 87.5C92.55 87.6399 92.4001 87.6399 92.4001 87.7798C90.6003 89.8798 87.7502 91.1399 84.9001 91.1399C83.2502 91.1399 81.4498 90.7198 80.1003 90.0198L75.0002 87.3601L70.0499 90.0202C68.5499 90.8601 66.9001 91.1404 65.2502 91.1404C62.2502 91.1404 59.5499 89.8803 57.6003 87.7803C57.4504 87.6404 57.4504 87.6404 57.4504 87.5005C52.5002 90.4404 49.0505 95.2005 49.0505 102.2V113.54C49.0505 115.22 50.5505 116.62 52.3503 116.62H97.8003C99.6 116.62 101.1 115.22 101.1 113.54V102.2C101.1 95.2 97.4999 90.4405 92.5498 87.5005L92.55 87.5Z" fill="#9CFF1E"/>
<path d="M56.85 66.92L62.85 71.9599C63.4501 72.52 63.7499 73.22 63.6 73.92L61.9501 81.3402C61.35 84.0003 64.35 86.1003 66.9004 84.7003L73.9501 80.9206C74.7001 80.5004 75.4501 80.5004 76.2001 80.9206L83.2499 84.7003C85.7996 86.1003 88.7996 84.0003 88.2001 81.3402L86.5502 73.92C86.4003 73.22 86.7001 72.3801 87.3002 71.9599L93.3002 66.92C95.4003 65.0998 94.35 61.7402 91.35 61.4599L83.3997 60.62C82.6497 60.4801 81.8997 60.0599 81.6 59.3598L78.3002 52.4997C77.1 49.9795 73.35 49.9795 72.1504 52.4997L68.8506 59.3598C68.5508 60.0598 67.8008 60.48 67.0508 60.62L59.1006 61.4599C55.7999 61.7397 54.75 65.0998 56.8501 66.92H56.85Z" fill="#9CFF1E"/>
<path d="M74.9999 41.16C77.2499 41.16 79.0497 39.4802 79.0497 37.3802V26.8802C79.0497 24.7802 77.2499 23.1005 74.9999 23.1005C72.7499 23.1005 70.9502 24.7802 70.9502 26.8802V37.3802C70.9502 39.4798 72.7499 41.16 74.9999 41.16Z" fill="#9CFF1E"/>
<path d="M90 43.68C90.4502 43.8199 90.8999 43.9598 91.3502 43.9598C93 43.9598 94.5 42.98 95.1002 41.58L99 31.78C99.75 29.8199 98.7002 27.7199 96.6002 27.0199C94.5001 26.3199 92.25 27.2997 91.5 29.2598L87.6002 39.0598C87.0001 40.88 88.0499 42.98 90 43.68Z" fill="#9CFF1E"/>
<path d="M54.9 41.44C55.5001 42.9799 57.0001 43.8198 58.65 43.8198C59.1002 43.8198 59.5499 43.6799 60.0001 43.54C62.1002 42.84 63.15 40.74 62.4 38.7798L58.5001 28.9798C57.7501 27.0197 55.5001 26.04 53.4 26.74C51.2998 27.44 50.2501 29.54 51.0001 31.5001L54.9 41.44Z" fill="#9CFF1E"/>
<path d="M111.9 74.2H128.7C131.4 74.2 133.65 72.1 133.65 69.5798V51.9398C133.65 49.4195 131.4 47.3195 128.7 47.3195L111.9 47.32C109.2 47.32 106.95 49.42 106.95 51.9402V69.7202C106.95 72.24 109.2 74.2 111.9 74.2Z" fill="#9CFF1E"/>
</svg>
