<svg width="150" height="140" viewBox="0 0 150 140" fill="none" xmlns="http://www.w3.org/2000/svg">
<path d="M42.245 43.9997L25.1025 73.2853L75 124.428L124.898 73.143L107.755 43.9997H42.245ZM101.633 49.7136L93.214 69.2845L80.0515 49.7136H101.633ZM86.3263 69.7138H63.52L74.8467 52.7143L86.3263 69.7138ZM69.795 49.7136L56.785 69.1421L48.5199 49.7136H69.795ZM43.6213 53.5709L50.509 69.714H34.1315L43.6213 53.5709ZM35.8152 75.4284H52.9577L66.1202 106.286L35.8152 75.4284ZM74.9989 112.572L59.5402 76L59.693 75.4286H90.1517L90.3046 76L90.4574 76.1427L74.9989 112.572ZM84.0297 106.429L97.1922 75.5716H114.182L84.0297 106.429ZM99.6422 69.7138L106.53 53.7141L116.02 69.7138H99.6422Z" fill="#9CFF1E"/>
<path d="M71.9387 15.4292H78.0612V34.0002H71.9387V15.4292Z" fill="#9CFF1E"/>
<path d="M134.55 26.3935L138.789 30.5165L123.218 44.464L118.979 40.341L134.55 26.3935Z" fill="#9CFF1E"/>
<path d="M15.3812 26.4005L30.9525 40.3492L26.7127 44.4722L11.1415 30.5235L15.3812 26.4005Z" fill="#9CFF1E"/>
</svg>
